<?xml version="1.0" standalone="no"?>
<!DOCTYPE svg PUBLIC "-//W3C//DTD SVG 20010904//EN"
 "http://www.w3.org/TR/2001/REC-SVG-20010904/DTD/svg10.dtd">
<svg version="1.0" xmlns="http://www.w3.org/2000/svg"
 width="260.000000pt" height="260.000000pt" viewBox="0 0 260.000000 260.000000"
 preserveAspectRatio="xMidYMid meet">
<metadata>
Created by potrace 1.14, written by Peter Selinger 2001-2017
</metadata>
<g transform="translate(0.000000,260.000000) scale(0.100000,-0.100000)"
fill="#000000" stroke="none">
<path d="M1140 2563 c-108 -4 -378 -39 -450 -59 -161 -45 -259 -80 -300 -109
-25 -17 -73 -50 -107 -74 -61 -42 -112 -105 -134 -169 -6 -18 -15 -32 -20 -32
-12 0 -12 -167 0 -174 4 -3 12 -41 15 -85 9 -97 50 -188 152 -337 72 -106 105
-145 224 -264 41 -42 111 -118 155 -169 44 -52 90 -106 103 -120 13 -14 50
-80 83 -146 51 -103 63 -136 79 -230 26 -158 48 -209 123 -287 72 -76 125
-113 222 -158 319 -147 679 -157 944 -26 110 54 185 128 209 206 35 115 10
288 -59 401 -18 30 -36 56 -40 59 -3 3 -32 46 -63 97 -31 50 -60 93 -64 95 -4
2 -33 35 -64 73 -31 39 -90 105 -132 148 l-75 79 85 100 c47 55 97 119 111
142 14 22 46 72 71 111 73 112 109 213 118 327 6 87 4 103 -15 148 -46 107
-137 223 -210 269 -109 68 -294 126 -492 155 -113 17 -331 37 -364 34 -11 -1
-58 -3 -105 -5z m553 -1693 c56 -68 130 -200 158 -279 10 -29 22 -81 25 -116
6 -60 5 -64 -20 -80 -21 -14 -40 -17 -86 -12 -73 6 -138 38 -202 98 l-48 45 0
67 c0 92 16 156 60 241 46 90 49 96 58 96 4 0 29 -27 55 -60z"/>
</g>
</svg>
